<?xml version="1.0" encoding="UTF-8" standalone="no"?>
<svg
   xmlns:dc="http://purl.org/dc/elements/1.1/"
   xmlns:cc="http://creativecommons.org/ns#"
   xmlns:rdf="http://www.w3.org/1999/02/22-rdf-syntax-ns#"
   xmlns:svg="http://www.w3.org/2000/svg"
   xmlns="http://www.w3.org/2000/svg"
   xmlns:sodipodi="http://sodipodi.sourceforge.net/DTD/sodipodi-0.dtd"
   xmlns:inkscape="http://www.inkscape.org/namespaces/inkscape"
   inkscape:version="1.0 (4035a4fb49, 2020-05-01)"
   sodipodi:docname="envelope-closed.svg"
   id="svg4"
   version="1.1"
   viewBox="0 0 8 8"
   height="8"
   width="8">
  <metadata
     id="metadata10">
    <rdf:RDF>
      <cc:Work
         rdf:about="">
        <dc:format>image/svg+xml</dc:format>
        <dc:type
           rdf:resource="http://purl.org/dc/dcmitype/StillImage" />
      </cc:Work>
    </rdf:RDF>
  </metadata>
  <defs
     id="defs8" />
  <sodipodi:namedview
     inkscape:current-layer="svg4"
     inkscape:window-maximized="1"
     inkscape:window-y="-8"
     inkscape:window-x="-8"
     inkscape:cy="4"
     inkscape:cx="4"
     inkscape:zoom="106.25"
     showgrid="false"
     id="namedview6"
     inkscape:window-height="1017"
     inkscape:window-width="1920"
     inkscape:pageshadow="2"
     inkscape:pageopacity="0"
     guidetolerance="10"
     gridtolerance="10"
     objecttolerance="10"
     borderopacity="1"
     bordercolor="#666666"
     pagecolor="#ffffff" />
  <path
     id="path2"
     transform="translate(0 1)"
     d="M0 0v1l4 2 4-2v-1h-8zm0 2v4h8v-4l-4 2-4-2z" />
  <path
     id="path12"
     d="M 1.9929412,2.9924158 0,1.9952853 V 1.501172 1.0070588 H 4 8 V 1.5011721 1.9952853 L 6.0047147,2.9929368 C 4.9073079,3.5416451 4.0041314,3.9903538 3.9976559,3.9900673 3.9911804,3.9897808 3.0890588,3.5408376 1.9929412,2.9924158 Z"
     style="fill:#ffffff;stroke-width:0.00941176" />
  <path
     id="path14"
     d="M 0,5.0023529 C 0,3.9075294 0.00212162,3.0117647 0.00471472,3.0117647 c 0.0025931,0 0.90259309,0.4489432 1.99999998,0.9976515 L 4,5.0070677 5.9952853,4.0094162 c 1.0974068,-0.5487083 1.9974068,-0.9976515 2,-0.9976515 C 7.9978784,3.0117647 8,3.9075294 8,5.0023529 V 6.9929412 H 4 0 Z"
     style="fill:#ffffff;stroke-width:0.00941176" />
</svg>
