<?xml version="1.0" encoding="utf-8"?>
<!-- Generator: Adobe Illustrator 24.2.1, SVG Export Plug-In . SVG Version: 6.00 Build 0)  -->
<svg version="1.1" id="Layer_1" xmlns="http://www.w3.org/2000/svg" xmlns:xlink="http://www.w3.org/1999/xlink" x="0px" y="0px"
	 viewBox="0 0 3100 530" style="enable-background:new 0 0 3100 530;" xml:space="preserve">
<g>
	<polyline points="543.5,220.41 544.07,231.08 544.07,266.33 513.78,285.63 420.88,344.71 294.97,306.33 286.31,261.7 
		409.54,303.09 	"/>
	<path d="M544.07,171.8v8.67l-30.29,21.57l-105.6,75.19l-149.36-38.25L275.95,329c5.93,1.19,10.87,5.89,12.07,12.3
		c1.61,8.43-3.8,16.62-12.13,18.23c-8.3,1.64-16.32-3.9-17.94-12.33c-1.24-6.41,1.65-12.63,6.72-15.97l-18.16-95.37l-1.49-0.38
		l1.36-0.32l-1.58-8.24l11.28-2.22l1.52,7.98l140.62-31.4l-1.83-8.47l-152.31,33.97l137.29-90.44l132.41,28.88L544.07,171.8z"/>
</g>
<path d="M89.9,60.59v353.84h454.17V231.08l-0.57-10.67l-29.72,19.67v143.56H120.19V91.37h393.59v110.67l30.29-21.57V60.59H89.9z"/>
<g>
	<rect x="256.44" y="399.03" width="121.11" height="65.33"/>
	<rect x="242.62" y="442.53" width="148.72" height="21.83"/>
</g>
<path d="M703.95,248.11c-12.25-11.55-26.25-15.4-42.7-15.4c-20.3,0-31.5,6.3-31.5,17.15c0,11.2,10.15,17.5,32.2,18.9
	c32.55,2.1,73.85,9.45,73.85,55.3c0,30.45-24.85,56.7-74.2,56.7c-27.3,0-54.6-4.55-79.8-30.8l21-30.45
	c12.25,13.65,40.25,23.8,59.5,24.15c16.1,0.35,31.15-8.05,31.15-20.65c0-11.9-9.8-16.8-34.3-18.2c-32.55-2.45-71.4-14.35-71.4-53.55
	c0-39.9,41.3-53.9,72.8-53.9c26.95,0,47.25,5.25,67.2,22.75L703.95,248.11z"/>
<path d="M809.65,153.61c0,33.25-50.4,33.25-50.4,0C759.25,120.36,809.65,120.36,809.65,153.61z M763.1,201.56v173.25h42.7V201.56
	H763.1z"/>
<path d="M904.5,153.61v49h47.6v36.75h-47.95v74.55c0,16.45,9.1,24.5,22.4,24.5c6.65,0,14.35-2.1,20.65-5.25l11.9,36.4
	c-12.25,4.9-22.4,7-35.35,7.35c-37.45,1.4-61.95-19.95-61.95-63v-74.55h-32.2v-36.75h32.2v-44.45L904.5,153.61z"/>
<path d="M1020.34,303.76c2.8,21.35,21.35,36.75,51.45,36.75c15.75,0,36.4-5.95,46.2-16.1l27.3,26.95c-18.2,18.9-47.95,28-74.2,28
	c-59.5,0-94.85-36.75-94.85-92.05c0-52.5,35.7-90.3,91.7-90.3c57.75,0,93.8,35.7,87.15,106.75H1020.34z M1114.15,268.41
	c-2.8-22.4-20.3-33.6-44.8-33.6c-23.1,0-42,11.2-48.3,33.6H1114.15z"/>
<path d="M1300.69,248.11c-12.25-11.55-26.25-15.4-42.7-15.4c-20.3,0-31.5,6.3-31.5,17.15c0,11.2,10.15,17.5,32.2,18.9
	c32.55,2.1,73.85,9.45,73.85,55.3c0,30.45-24.85,56.7-74.2,56.7c-27.3,0-54.6-4.55-79.8-30.8l21-30.45
	c12.25,13.65,40.25,23.8,59.5,24.15c16.1,0.35,31.15-8.05,31.15-20.65c0-11.9-9.8-16.8-34.3-18.2c-32.55-2.45-71.4-14.35-71.4-53.55
	c0-39.9,41.3-53.9,72.8-53.9c26.95,0,47.25,5.25,67.2,22.75L1300.69,248.11z"/>
<path d="M1357.64,345.82v-60.64h-14.72v-17.12h14.72v-5.28c0-21.12,14.24-30.88,30.08-30.88c6.88,0,14.08,2.24,20.48,6.4l-7.2,14.56
	c-4.16-2.72-8-4.16-12-4.16c-6.72,0-11.84,4.48-11.84,14.08v5.28h23.2v17.12h-23.2v60.64H1357.64z"/>
<path d="M1487.56,306.45c0,22.72-15.52,41.12-41.12,41.12s-40.96-18.4-40.96-41.12c0-22.56,15.68-41.12,40.8-41.12
	S1487.56,283.89,1487.56,306.45z M1425,306.45c0,12,7.2,23.2,21.44,23.2s21.44-11.2,21.44-23.2c0-11.84-8.32-23.36-21.44-23.36
	C1432.36,283.09,1425,294.61,1425,306.45z"/>
<path d="M1519.08,266.93l1.44,9.12c6.08-9.76,14.24-11.2,22.24-11.2c8.16,0,16,3.2,20.32,7.52l-8.8,16.96
	c-4-3.36-7.68-5.12-14.08-5.12c-10.24,0-19.68,5.44-19.68,20v41.6H1501v-78.88H1519.08L1519.08,266.93z"/>
<path d="M1691.74,248.11c-12.25-11.55-26.25-15.4-42.7-15.4c-20.3,0-31.5,6.3-31.5,17.15c0,11.2,10.15,17.5,32.2,18.9
	c32.55,2.1,73.85,9.45,73.85,55.3c0,30.45-24.85,56.7-74.2,56.7c-27.3,0-54.6-4.55-79.8-30.8l21-30.45
	c12.25,13.65,40.25,23.8,59.5,24.15c16.1,0.35,31.15-8.05,31.15-20.65c0-11.9-9.8-16.8-34.3-18.2c-32.55-2.45-71.4-14.35-71.4-53.55
	c0-39.9,41.3-53.9,72.8-53.9c26.95,0,47.25,5.25,67.2,22.75L1691.74,248.11z"/>
<path d="M1811.09,153.61v49h47.6v36.75h-47.95v74.55c0,16.45,9.1,24.5,22.4,24.5c6.65,0,14.35-2.1,20.65-5.25l11.9,36.4
	c-12.25,4.9-22.4,7-35.35,7.35c-37.45,1.4-61.95-19.95-61.95-63v-74.55h-32.2v-36.75h32.2v-44.45L1811.09,153.61z"/>
<path d="M1934.28,202.26v90.3c0,26.25,14.35,46.2,41.65,46.2c26.25,0,44.1-22.05,44.1-48.3v-88.2h42.35v172.9h-38.15l-2.8-23.45
	c-17.85,17.5-34.3,25.9-58.45,25.9c-41.3,0-71.4-31.15-71.4-84.7v-90.65L1934.28,202.26L1934.28,202.26z"/>
<path d="M2279.39,130.16v244.65h-39.9l-2.8-23.8c-13.3,20.65-34.65,27.65-55.65,27.65c-50.75,0-88.9-33.6-88.9-90.3
	c0-59.5,37.45-90.3,87.85-90.3c18.2,0,46.55,9.8,56.7,27.65v-95.55H2279.39z M2134.83,288.36c0,30.1,21.7,50.75,49,50.75
	c26.95,0,50.05-19.6,50.05-50.75c0-30.1-23.1-50.4-50.05-50.4C2156.54,237.96,2134.83,257.21,2134.83,288.36z"/>
<path d="M2356.73,303.76c2.8,21.35,21.35,36.75,51.45,36.75c15.75,0,36.4-5.95,46.2-16.1l27.3,26.95c-18.2,18.9-47.95,28-74.2,28
	c-59.5,0-94.85-36.75-94.85-92.05c0-52.5,35.7-90.3,91.7-90.3c57.75,0,93.8,35.7,87.15,106.75H2356.73z M2450.53,268.41
	c-2.8-22.4-20.3-33.6-44.8-33.6c-23.1,0-42,11.2-48.3,33.6H2450.53z"/>
<path d="M2651.43,374.82v-90.3c0-26.25-14.35-46.2-41.65-46.2c-26.25,0-44.1,22.05-44.1,48.3v88.2h-42.35v-172.9h38.15l2.8,23.45
	c17.5-17.15,35-25.9,56.7-25.9c40.6,0,73.15,30.45,73.15,84.7v90.65H2651.43z"/>
<path d="M2783.73,153.61v49h47.6v36.75h-47.95v74.55c0,16.45,9.1,24.5,22.4,24.5c6.65,0,14.35-2.1,20.65-5.25l11.9,36.4
	c-12.25,4.9-22.4,7-35.35,7.35c-37.45,1.4-61.95-19.95-61.95-63v-74.55h-32.2v-36.75h32.2v-44.45L2783.73,153.61z"/>
<path d="M2975.87,248.11c-12.25-11.55-26.25-15.4-42.7-15.4c-20.3,0-31.5,6.3-31.5,17.15c0,11.2,10.15,17.5,32.2,18.9
	c32.55,2.1,73.85,9.45,73.85,55.3c0,30.45-24.85,56.7-74.2,56.7c-27.3,0-54.6-4.55-79.8-30.8l21-30.45
	c12.25,13.65,40.25,23.8,59.5,24.15c16.1,0.35,31.15-8.05,31.15-20.65c0-11.9-9.8-16.8-34.3-18.2c-32.55-2.45-71.4-14.35-71.4-53.55
	c0-39.9,41.3-53.9,72.8-53.9c26.95,0,47.25,5.25,67.2,22.75L2975.87,248.11z"/>
</svg>
